<svg height="512" viewBox="0 0 64 64" width="512" xmlns="http://www.w3.org/2000/svg"><g id="_16_cake" data-name="16_cake"><path d="m35 9c0 1-1 2-3 2s-3-1-3-2c0-3 3-6 3-6s3 3 3 6z" fill="#ffcb05"/><path d="m33.5 10c0 .5-.5 1-1.5 1s-1.5-.5-1.5-1a5.237 5.237 0 0 1 1.5-3 5.237 5.237 0 0 1 1.5 3z" fill="#f7931e"/><path d="m46 9c0 1-1 2-3 2s-3-1-3-2c0-3 3-6 3-6s3 3 3 6z" fill="#ffcb05"/><path d="m44.5 10c0 .5-.5 1-1.5 1s-1.5-.5-1.5-1a5.237 5.237 0 0 1 1.5-3 5.237 5.237 0 0 1 1.5 3z" fill="#f7931e"/><path d="m62.41 57.59a1.955 1.955 0 0 1 .59 1.41 2.006 2.006 0 0 1 -2 2h-58a1.955 1.955 0 0 1 -1.41-.59 1.955 1.955 0 0 1 -.59-1.41 2.006 2.006 0 0 1 2-2h58a1.955 1.955 0 0 1 1.41.59z" fill="#59311a"/><path d="m24 9c0 1-1 2-3 2s-3-1-3-2c0-3 3-6 3-6s3 3 3 6z" fill="#ffcb05"/><path d="m22.5 10c0 .5-.5 1-1.5 1s-1.5-.5-1.5-1a5.237 5.237 0 0 1 1.5-3 5.237 5.237 0 0 1 1.5 3z" fill="#f7931e"/><g fill="#038c3b"><path d="m21 14c3 0 3 17 3 17h-6v-.19a3.5 3.5 0 0 0 3-3.81 10.3 10.3 0 0 0 -2.43-6.39c.42-3.53 1.15-6.61 2.43-6.61z"/><path d="m32 19a3.64 3.64 0 0 0 -2.41 1.43c.43-3.46 1.16-6.43 2.41-6.43s1.98 2.97 2.41 6.43a3.64 3.64 0 0 0 -2.41-1.43z"/><path d="m43 27a3.5 3.5 0 0 0 3 3.81v.19h-6s0-17 3-17c1.28 0 2.01 3.08 2.43 6.61a10.3 10.3 0 0 0 -2.43 6.39z"/></g><path d="m18 31h38.41a2.591 2.591 0 0 1 2.59 2.59v2.95a2.577 2.577 0 0 1 -2 2.52 2.324 2.324 0 0 1 -.59.07 2.612 2.612 0 0 1 -1.28-.34 5.828 5.828 0 0 0 -6.13.21 5.816 5.816 0 0 1 -6.13.21l-.98-.56a5.841 5.841 0 0 0 -5.78 0l-1.22.7a5.841 5.841 0 0 1 -5.78 0l-1.22-.7a5.841 5.841 0 0 0 -5.78 0l-.98.56a5.828 5.828 0 0 1 -6.13-.21 5.828 5.828 0 0 0 -6.13-.21 2.5 2.5 0 0 1 -1.87.27 2.577 2.577 0 0 1 -2-2.52v-2.95a2.591 2.591 0 0 1 2.59-2.59z" fill="#f9e0bb"/><path d="m57 35.945a2.324 2.324 0 0 1 -.59.07 2.612 2.612 0 0 1 -1.28-.34 5.828 5.828 0 0 0 -6.13.21 5.816 5.816 0 0 1 -6.13.21l-.98-.56a5.841 5.841 0 0 0 -5.78 0l-1.22.7a5.841 5.841 0 0 1 -5.78 0l-1.22-.7a5.841 5.841 0 0 0 -5.78 0l-.98.56a5.828 5.828 0 0 1 -6.13-.21 5.828 5.828 0 0 0 -6.13-.21 2.5 2.5 0 0 1 -1.87.27 2.575 2.575 0 0 1 -1.992-2.432c0 .026-.008.051-.008.077v2.95a2.577 2.577 0 0 0 2 2.52 2.5 2.5 0 0 0 1.87-.27 5.828 5.828 0 0 1 6.13.21 5.828 5.828 0 0 0 6.13.21l.98-.56a5.841 5.841 0 0 1 5.78 0l1.22.7a5.841 5.841 0 0 0 5.78 0l1.22-.7a5.841 5.841 0 0 1 5.78 0l.98.56a5.816 5.816 0 0 0 6.13-.21 5.828 5.828 0 0 1 6.13-.21 2.612 2.612 0 0 0 1.28.34 2.324 2.324 0 0 0 .59-.07 2.577 2.577 0 0 0 2-2.52v-2.95c0-.026-.007-.051-.008-.077a2.575 2.575 0 0 1 -1.992 2.432z" fill="#bba88c"/><path d="m7 46h50v5h-50z" fill="#f9e0bb"/><path d="m7 51h50v6h-50z" fill="#b26826"/><path d="m7 39.06a2.5 2.5 0 0 0 1.87-.27 5.828 5.828 0 0 1 6.13.21 5.828 5.828 0 0 0 6.13.21l.98-.56a5.841 5.841 0 0 1 5.78 0l1.22.7a5.841 5.841 0 0 0 5.78 0l1.22-.7a5.841 5.841 0 0 1 5.78 0l.98.56a5.816 5.816 0 0 0 6.13-.21 5.828 5.828 0 0 1 6.13-.21 2.612 2.612 0 0 0 1.28.34 2.324 2.324 0 0 0 .59-.07v6.94h-50z" fill="#b26826"/><path d="m56.41 39.13a2.612 2.612 0 0 1 -1.28-.34 5.828 5.828 0 0 0 -6.13.21 5.816 5.816 0 0 1 -6.13.21l-.98-.56a5.841 5.841 0 0 0 -5.78 0l-1.22.7a5.841 5.841 0 0 1 -5.78 0l-1.22-.7a5.841 5.841 0 0 0 -5.78 0l-.98.56a5.828 5.828 0 0 1 -6.13-.21 5.828 5.828 0 0 0 -6.13-.21 2.5 2.5 0 0 1 -1.87.27v3a2.5 2.5 0 0 0 1.87-.27 5.828 5.828 0 0 1 6.13.21 5.828 5.828 0 0 0 6.13.21l.98-.56a5.841 5.841 0 0 1 5.78 0l1.22.7a5.841 5.841 0 0 0 5.78 0l1.22-.7a5.841 5.841 0 0 1 5.78 0l.98.56a5.816 5.816 0 0 0 6.13-.21 5.828 5.828 0 0 1 6.13-.21 2.612 2.612 0 0 0 1.28.34 2.324 2.324 0 0 0 .59-.07v-3a2.324 2.324 0 0 1 -.59.07z" fill="#7c3c18"/><path d="m48 19c2 0 5 4 5 8 0 3-2 4-5 4a9.5 9.5 0 0 1 -2-.19 3.5 3.5 0 0 1 -3-3.81 10.3 10.3 0 0 1 2.43-6.39 3.878 3.878 0 0 1 2.57-1.61z" fill="#d81919"/><path d="m32 19a3.64 3.64 0 0 1 2.41 1.43 10.263 10.263 0 0 1 2.59 6.57 3.409 3.409 0 0 1 -2.01 3.48 7.216 7.216 0 0 1 -2.99.52 7.1 7.1 0 0 1 -3-.53 3.4 3.4 0 0 1 -2-3.47 10.263 10.263 0 0 1 2.59-6.57 3.64 3.64 0 0 1 2.41-1.43z" fill="#d81919"/><path d="m18.57 20.61a10.3 10.3 0 0 1 2.43 6.39 3.5 3.5 0 0 1 -3 3.81 9.5 9.5 0 0 1 -2 .19c-3 0-5-1-5-4 0-4 3-8 5-8a3.878 3.878 0 0 1 2.57 1.61z" fill="#d81919"/><path d="m13 28c0-3.99 2.984-7.978 4.984-8a3.166 3.166 0 0 0 -1.984-1c-2 0-5 4-5 8a3.493 3.493 0 0 0 3.035 3.81 3.7 3.7 0 0 1 -1.035-2.81z" fill="#ef4545"/><path d="m29.016 28c0-3.99 2.984-7.978 4.984-8a3.168 3.168 0 0 0 -1.984-1c-2 0-5 4-5 8a3.493 3.493 0 0 0 3.035 3.81 3.7 3.7 0 0 1 -1.035-2.81z" fill="#ef4545"/><path d="m45.016 28c0-3.99 2.984-7.978 4.984-8a3.168 3.168 0 0 0 -1.984-1c-2 0-5 4-5 8a3.493 3.493 0 0 0 3.035 3.81 3.7 3.7 0 0 1 -1.035-2.81z" fill="#ef4545"/></g></svg>